<svg xmlns="http://www.w3.org/2000/svg" viewBox="0 0 356.033 124.856" height="40" width="115"><path d="M35.688 37.36v40.93h41.2V37.36zm4.17 4.17h32.86v32.6h-32.86zM56.288 0a57.87 57.87 0 00-57.83 57.83 57.86 57.86 0 0057.83 57.82 57.86 57.86 0 0057.83-57.82A57.87 57.87 0 0056.288 0zm0 4.69a53.1 53.1 0 0153.14 53.14 53.1 53.1 0 01-53.14 53.13 53.1 53.1 0 01-53.13-53.13 53.1 53.1 0 0153.13-53.14zm265.68-.86c-11.62 0-19.77 1-24.45 3-4.68 1.99-7.72 5.93-9.1 11.83-1.3 5.9-1.95 16.2-1.95 30.95 0 14.74.65 25.05 1.95 30.95 1.38 5.9 4.42 9.84 9.1 11.83 4.68 2 12.83 3 24.45 3 11.61 0 19.76-1 24.44-3 4.69-1.99 7.68-5.94 8.98-11.83 1.37-5.9 2.07-16.21 2.07-30.96 0-14.74-.7-25.05-2.08-30.95-1.3-5.9-4.3-9.84-8.98-11.84-4.68-1.99-12.83-2.99-24.44-2.99zm-193.44 1.04v89.47h4.68V56.11h33.17c2.42 0 4.2-.09 5.33-.26l15.34 38.5h5.2l-15.73-39.28c4.33-1.04 7.58-2.77 9.75-5.2a17.21 17.21 0 004.16-8.2c.61-3.12.91-6.84.91-11.18 0-5.37-.43-9.8-1.3-13.26-.86-3.56-2.99-6.5-6.37-8.85-3.38-2.34-8.5-3.5-15.34-3.5zm73.7 0l33.94 52.93v36.54h4.68V57.8l34.07-52.93h-5.33l-30.56 47.99h-.9l-30.45-47.99zm119.74 3.38c10.49 0 17.6.7 21.32 2.08 3.82 1.3 6.33 4.64 7.54 10.02 1.3 5.29 1.95 15.04 1.95 29.26 0 14.22-.65 24.01-1.95 29.39-1.21 5.29-3.72 8.62-7.54 10.01-3.73 1.3-10.83 1.95-21.32 1.95-10.5 0-17.65-.65-21.46-1.95-3.73-1.39-6.24-4.72-7.55-10.01-1.2-5.38-1.82-15.18-1.82-29.4 0-14.21.61-23.96 1.82-29.25 1.3-5.38 3.82-8.72 7.55-10.02 3.81-1.38 10.97-2.08 21.46-2.08zM133.208 9.3h34.86c5.63 0 9.75.86 12.35 2.6a11.15 11.15 0 015.07 6.89c.78 2.86 1.17 6.76 1.17 11.7 0 4.86-.43 8.76-1.3 11.7-.87 2.87-2.77 5.17-5.72 6.9-2.95 1.73-7.46 2.6-13.52 2.6h-32.9z" fill="#fff"/><path fill="#fff" stroke-width="2.017" d="M134.885 120.064q-3.267 0-4.622-.605-1.356-.629-1.743-2.25-.363-1.646-.363-5.663t.363-5.639q.387-1.645 1.743-2.25 1.355-.63 4.622-.63t4.622.63q1.355.605 1.718 2.25.387 1.622.387 5.639t-.387 5.663q-.363 1.621-1.718 2.25-1.355.605-4.622.605zm0-1.452q2.662 0 3.606-.339.968-.363 1.258-1.694.315-1.355.315-5.033 0-3.679-.315-5.01-.29-1.355-1.258-1.694-.944-.363-3.606-.363t-3.63.363q-.944.34-1.259 1.694-.29 1.331-.29 5.01 0 3.678.29 5.033.315 1.331 1.259 1.694.968.34 3.63.34zM146.832 108.884h-2.54v-1.355h2.54v-2.251q0-1.525.46-2.25.484-.727 1.428-.92.968-.218 2.831-.218v1.258q-1.379 0-2.057.146-.653.145-.92.532-.265.387-.265 1.186v2.517h3.242v1.355h-3.242v10.987h-1.477zm8.712 0h-2.54v-1.355h2.54v-2.251q0-1.525.46-2.25.484-.727 1.428-.92.968-.218 2.831-.218v1.258q-1.379 0-2.057.146-.653.145-.92.532-.265.387-.265 1.186v2.517h3.242v1.355h-3.242v10.987h-1.477zM163.209 103.802v-1.912h1.645v1.912zm.072 16.069v-12.342h1.476v12.342zM176.908 119.75q-.58.145-1.5.217-.92.097-1.767.097-2.25 0-3.291-.629-1.04-.63-1.355-1.912-.315-1.307-.315-3.823 0-2.517.363-3.848.387-1.331 1.428-1.912 1.04-.605 3.073-.605.823 0 1.719.097.92.072 1.524.193v1.331q-1.5-.266-2.904-.266-1.67 0-2.444.412-.75.387-1.016 1.403-.267 1.017-.267 3.17 0 2.251.267 3.267.266 1.017 1.04 1.404.775.363 2.493.363 1.452 0 2.952-.266zM180.272 103.802v-1.912h1.645v1.912zm.072 16.069v-12.342h1.476v12.342zM189.736 120.064q-1.5 0-2.42-.29-.895-.315-1.355-1.09-.46-.774-.46-2.177 0-1.428.315-2.202.338-.775 1.137-1.114.799-.338 2.275-.338.702 0 4.937.12v-.895q0-1.621-.29-2.299-.291-.677-1.066-.871-.774-.218-2.637-.218-.799 0-1.985.097-1.186.073-1.839.194v-1.331q1.815-.315 4.38-.315 2.13 0 3.146.411 1.04.412 1.404 1.38.363.968.363 2.904v7.84h-1.283l-.072-1.839h-.121q-.484 1.235-1.67 1.646-1.162.387-2.759.387zm.411-1.33q1.38 0 2.227-.243.871-.242 1.258-.992.29-.58.412-1.21.12-.63.12-1.476v-.75h-4.549q-1.137 0-1.67.169-.532.145-.75.63-.218.483-.218 1.524 0 .992.242 1.5.266.484.92.678.653.17 2.008.17zM200.101 119.87v-17.98h1.476v17.98zM227.316 119.87v-13.89h-.097l-6.244 13.89h-1.186l-6.243-13.89h-.097v13.89h-1.476v-16.649h2.081l6.292 13.988h.121l6.316-13.988h2.057v16.65zM233.54 103.802v-1.912h1.646v1.912zm.073 16.069v-12.342h1.476v12.342zM248.159 112.635q0-1.791-.242-2.565-.242-.799-.944-1.065-.677-.266-2.202-.266-1.718 0-2.541.58-.799.557-.992 1.5-.194.945-.194 2.663v6.389h-1.476v-12.342h1.307l.072 1.863h.121q.388-.968 1.331-1.5.968-.557 2.904-.557 1.84 0 2.76.484.943.484 1.258 1.5.314.993.314 2.808v7.744h-1.476zM254.053 103.802v-1.912h1.646v1.912zm.073 16.069v-12.342h1.476v12.342zM268.672 112.635q0-1.791-.242-2.565-.242-.799-.944-1.065-.677-.266-2.202-.266-1.718 0-2.54.58-.8.557-.993 1.5-.194.945-.194 2.663v6.389h-1.476v-12.342h1.307l.073 1.863h.12q.388-.968 1.332-1.5.968-.557 2.904-.557 1.839 0 2.758.484.944.484 1.259 1.5.314.993.314 2.808v7.744h-1.476zM279.092 124.856q-2.396 0-4.429-.194v-1.33q2.202.169 4.138.169t2.808-.412q.87-.387 1.137-1.38.29-.991.29-3.097v-.435h-.12q-.436.992-1.453 1.427-1.016.412-2.686.412-1.96 0-2.952-.533-.968-.532-1.355-1.839-.388-1.33-.388-3.944t.388-3.945q.387-1.355 1.355-1.888.992-.532 2.952-.532 1.597 0 2.662.436 1.09.411 1.573 1.621h.121l.097-1.863h1.283v10.696q0 2.662-.388 4.017-.363 1.355-1.524 1.985-1.138.629-3.51.629zm.218-6.244q1.403 0 2.202-.363.823-.387 1.137-1.186.242-.58.315-1.33.072-.75.072-2.033 0-1.259-.072-1.985-.049-.75-.266-1.282-.34-.896-1.162-1.283-.823-.411-2.226-.411-1.719 0-2.469.338-.75.34-1.016 1.356-.266.992-.266 3.267 0 2.274.266 3.267.266.968 1.016 1.306.75.34 2.469.34zM294.877 103.221h7.163q2.033 0 3.025.653 1.016.654 1.307 1.743.314 1.065.314 2.783 0 1.645-.314 2.734-.29 1.09-1.307 1.767-1.016.653-3.05.653h-5.59v6.317h-1.548zm6.727 8.881q1.598 0 2.348-.387.75-.411.968-1.161.218-.75.218-2.154 0-1.452-.218-2.178-.194-.75-.944-1.138-.726-.411-2.347-.411h-5.203v7.43zM315.092 120.064q-2.541 0-3.63-.508t-1.404-1.742q-.29-1.259-.29-4.114 0-2.856.29-4.09.315-1.259 1.404-1.767t3.63-.508q2.541 0 3.63.508t1.38 1.767q.314 1.234.314 4.09 0 2.855-.315 4.114-.29 1.234-1.379 1.742t-3.63.508zm0-1.355q1.96 0 2.71-.339.775-.363.944-1.282.17-.92.17-3.388 0-2.469-.17-3.364-.17-.92-.944-1.283-.75-.363-2.71-.363t-2.735.363q-.75.363-.943 1.283-.17.895-.17 3.364 0 2.468.17 3.388.193.92.943 1.282.775.339 2.735.339zM329.083 120.064q-2.541 0-3.63-.508-1.09-.508-1.404-1.742-.29-1.259-.29-4.114 0-2.856.29-4.09.315-1.259 1.404-1.767t3.63-.508q2.54 0 3.63.508 1.089.508 1.38 1.767.314 1.234.314 4.09 0 2.855-.315 4.114-.29 1.234-1.38 1.742-1.088.508-3.63.508zm0-1.355q1.96 0 2.71-.339.774-.363.944-1.282.17-.92.17-3.388 0-2.469-.17-3.364-.17-.92-.944-1.283-.75-.363-2.71-.363t-2.735.363q-.75.363-.944 1.283-.17.895-.17 3.364 0 2.468.17 3.388.194.92.944 1.282.774.339 2.735.339zM338.306 119.87v-17.98h1.476v17.98z"/></svg>